HIERARCHY
ROOT Hips
{
  OFFSET 3.13124 94.3669 -3.18751
  CHANNELS  6 Xposition Yposition Zposition Zrotation Xrotation Yrotation
  JOINT LeftUpLeg
  {
    OFFSET 8.64259 1.95398 -2.38835
    CHANNELS 3 Zrotation Xrotation Yrotation
    JOINT LeftLeg
    {
      OFFSET 43.7702 0 0
      CHANNELS 3 Zrotation Xrotation Yrotation
      JOINT LeftFoot
      {
        OFFSET 40.6238 0 0
        CHANNELS 3 Zrotation Xrotation Yrotation
        JOINT LeftToeBase
        {
          OFFSET 12.7242 0 0
          CHANNELS 3 Zrotation Xrotation Yrotation
          End Site
          {
            OFFSET 0 0 0
          }
        }
      }
    }
  }
  JOINT RightUpLeg
  {
    OFFSET -8.2249 1.95398 -2.59336
    CHANNELS 3 Zrotation Xrotation Yrotation
    JOINT RightLeg
    {
      OFFSET 43.5653 0 0
      CHANNELS 3 Zrotation Xrotation Yrotation
      JOINT RightFoot
      {
        OFFSET 40.6238 0 0
        CHANNELS 3 Zrotation Xrotation Yrotation
        JOINT RightToeBase
        {
          OFFSET 12.7242 0 0
          CHANNELS 3 Zrotation Xrotation Yrotation
          End Site
          {
            OFFSET 0 0 0
          }
        }
      }
    }
  }
  JOINT Spine
  {
    OFFSET 0.165834 0.87714 6.61349
    CHANNELS 3 Zrotation Xrotation Yrotation
    JOINT Spine1
    {
      OFFSET 7.38962 1.71661e-005 0
      CHANNELS 3 Zrotation Xrotation Yrotation
      JOINT Spine2
      {
        OFFSET 11.9445 1.14441e-005 0
        CHANNELS 3 Zrotation Xrotation Yrotation
        JOINT Spine3
        {
          OFFSET 14.7254 4.19617e-005 0
          CHANNELS 3 Zrotation Xrotation Yrotation
          JOINT Spine4
          {
            OFFSET 10.9679 0 0
            CHANNELS 3 Zrotation Xrotation Yrotation
            JOINT RightShoulder
            {
              OFFSET 2.46616 -1.6653 3.69651
              CHANNELS 3 Zrotation Xrotation Yrotation
              JOINT RightArm
              {
                OFFSET 13.0012 0 0
                CHANNELS 3 Zrotation Xrotation Yrotation
                JOINT RightForeArm
                {
                  OFFSET 28.7848 1.52588e-005 0
                  CHANNELS 3 Zrotation Xrotation Yrotation
                  JOINT RightHand
                  {
                    OFFSET 26.5688 1.52588e-005 0
                    CHANNELS 3 Zrotation Xrotation Yrotation
                    End Site
                    {
                      OFFSET 0 0 0
                    }
                  }
                }
              }
            }
            JOINT LeftShoulder
            {
              OFFSET 2.38034 -1.29275 -3.75231
              CHANNELS 3 Zrotation Xrotation Yrotation
              JOINT LeftArm
              {
                OFFSET 16.3182 6.10352e-005 0
                CHANNELS 3 Zrotation Xrotation Yrotation
                JOINT LeftForeArm
                {
                  OFFSET 27.0901 0 0
                  CHANNELS 3 Zrotation Xrotation Yrotation
                  JOINT LeftHand
                  {
                    OFFSET 24.5451 1.52588e-005 0
                    CHANNELS 3 Zrotation Xrotation Yrotation
                    End Site
                    {
                      OFFSET 0 0 0
                    }
                  }
                }
              }
            }
            JOINT Neck
            {
              OFFSET 5.0226 -0.0266342 0
              CHANNELS 3 Zrotation Xrotation Yrotation
              JOINT Head
              {
                OFFSET 6.69363 2.86102e-005 0
                CHANNELS 3 Zrotation Xrotation Yrotation
                End Site
                {
                  OFFSET 0 0 0
                }
              }
            }
          }
        }
      }
    }
  }
}
MOTION
Frames:	6
Frame Time:	0.0333333
39.8226 90.5341 10.7788 -23.2851 -86.8855 -22.9619 -177.73 13.8666 94.3143 -35.7566 37.5318 15.1515 77.7028 4.21263 2.12045 28.7808 6.53616e-006 3.62806e-006 170.45 15.9054 69.8438 -8.64771 -32.0839 -1.81802 45.2098 1.35492 1.83418 28.7808 1.06374e-005 1.28174e-005 0.448644 6.69254 -91.0037 13.4782 0.539153 -0.711455 1.80717 0.507641 -0.735201 -20.728 0.725812 -0.509483 -0.715345 0.725806 -0.509501 93.5122 -37.5581 -97.8383 1.75106 36.455 -0.689446 23.3262 18.1979 -60.4475 7.82329 0.640149 3.92741 -78.096 -53.7026 96.7279 13.674 -24.6067 3.40974 1.57885 -52.2554 -2.46719 20.3044 -1.99425 -13.9923 -18.5024 5.42023 12.7283 -12.3904 4.80317 11.199 
36.0156 90.3675 12.0227 67.2194 -86.4453 67.4757 -177.408 13.3051 96.6955 -38.4813 43.181 17.7537 75.1845 2.32361 1.33484 28.7808 6.53616e-006 3.62806e-006 170.456 12.1856 70.1492 -10.6943 -23.9438 -1.33202 51.5722 9.51285 7.49269 28.7808 1.06374e-005 1.28174e-005 0.559443 6.77539 -90.989 13.31 0.839029 -0.388064 1.63921 0.821132 -0.424618 -20.898 0.916867 -0.117928 -0.885389 0.91685 -0.11795 92.6963 -39.225 -98.9091 3.26921 36.4208 -1.29123 22.7878 16.1955 -62.666 11.2598 1.30835 7.69725 -76.6801 -53.9032 98.7814 12.5623 -23.8032 5.22765 1.50161 -65.4879 -2.26046 29.3019 -3.06813 -14.91 -20.4664 3.42861 11.3871 -12.5637 3.2097 8.22728 
32.2073 90.1857 13.1628 91.6056 -82.0826 91.5351 -177.721 13.3723 98.5766 -42.7154 48.4328 21.4713 70.6843 0.745496 0.562208 28.7808 6.53616e-006 3.62806e-006 172.706 11.7144 70.6431 -20.6747 -17.7053 -1.00043 60.3141 8.74221 5.65346 28.7808 1.06374e-005 1.28174e-005 0.700207 6.89063 -91.0947 13.0714 1.13408 -0.207632 1.40087 1.12383 -0.257391 -21.1382 1.14406 0.14282 -1.12557 1.14404 0.142808 92.0605 -39.2271 -100.033 6.59186 33.8771 -2.08138 20.2437 14.2408 -62.8373 10.222 1.14594 7.22608 -76.4749 -55.4842 99.0535 10.7608 -22.4001 8.86144 1.50162 -65.4504 -2.26116 30.7916 -2.06579 -11.0112 -22.6054 1.68549 12.6128 -12.5896 2.15437 3.50954 
28.5807 89.8983 14.2389 97.5397 -77.832 97.0444 -178.444 13.9657 99.9281 -48.6356 53.2601 26.5468 65.5049 0.0161462 0.0609844 28.7808 6.53616e-006 3.62806e-006 174.268 10.0687 72.2693 -26.7508 -11.8177 -0.746669 68.5663 7.94724 4.15566 28.7808 1.06374e-005 1.28174e-005 0.85216 7.01029 -91.1196 12.8247 1.45966 -0.140779 1.15449 1.45207 -0.204093 -21.3871 1.43425 0.30522 -1.37443 1.43425 0.30521 91.3778 -39.5014 -101.162 9.37105 31.7721 -2.89615 20.0456 13.5382 -63.7905 10.2164 1.27909 8.66497 -75.987 -57.808 99.6869 8.82785 -21.3936 11.2651 1.49548 -68.3263 -2.2072 31.4545 -2.45702 -12.1318 -24.5402 0.152934 13.8182 -12.9166 1.24297 -0.300284 
25.2016 89.8411 15.1378 100.213 -74.3811 99.5319 -179.125 14.7104 101.045 -53.804 55.9815 30.9418 59.2543 -0.27236 -0.293096 28.7808 6.53616e-006 3.62806e-006 175.217 8.05786 74.9436 -29.6161 -5.13951 -0.396794 74.1445 5.3027 2.30714 28.7808 1.06374e-005 1.28174e-005 1.03992 7.15741 -91.2051 12.5218 1.80829 -0.192744 0.852042 1.79806 -0.272133 -21.693 1.78256 0.359928 -1.68033 1.78255 0.359926 90.474 -40.0552 -102.585 12.3405 29.1557 -4.40542 19.472 13.1515 -63.7934 9.96059 1.27382 8.85435 -74.9654 -61.0031 100.997 4.54569 -19.9464 14.118 1.50843 -63.6386 -2.29259 25.378 -3.92277 -19.6667 -25.2917 -0.885545 15.4085 -14.0628 0.78435 -4.03795 
22.1502 89.9857 15.8116 101.969 -71.441 100.963 179.738 15.4249 101.155 -56.6481 54.8956 32.6714 53.6496 0.490022 -0.00475349 28.7808 6.53616e-006 3.62806e-006 175.781 6.04631 77.4502 -30.5402 0.147868 -0.0775304 77.7521 2.99528 1.03991 28.7808 1.06374e-005 1.28174e-005 1.20159 7.28619 -91.2321 12.258 2.09908 -0.252192 0.588679 2.08586 -0.344663 -21.9598 2.07826 0.389111 -1.94714 2.07825 0.389092 89.2032 -40.816 -104.551 15.3297 26.1353 -5.47886 20.3565 13.8401 -63.6366 9.01903 1.00734 7.1413 -72.9426 -64.0227 103.503 0.856434 -19.0472 15.5676 1.51854 -61.4415 -2.32895 26.8982 -4.23915 -20.1394 -25.8189 -1.66215 16.6176 -15.2715 0.556562 -7.1599 
